<svg id="Layer_1" data-name="Layer 1" xmlns="http://www.w3.org/2000/svg" viewBox="0 0 72.9 59.9"><defs><style>.cls-1{fill:#fcfdfe;}.cls-2{fill:#295c99;}.cls-3{fill:#235896;}</style></defs><path class="cls-1" d="M53.7,72.91h-35c-1.2,0-1.5-.29-1.5-1.5V14.52c0-1.2.3-1.5,1.5-1.5H88.6c1.2,0,1.5.3,1.5,1.5V71.41c0,1.21-.3,1.5-1.5,1.5C77,72.81,65.4,72.91,53.7,72.91ZM52,45H80.2c3.4,0,4.9-.9,5-2.8.1-2.1-1.6-3.1-5-3.1H24.1a12.29,12.29,0,0,0-2.7.2,2.82,2.82,0,0,0,.3,5.59,14.74,14.74,0,0,0,2.2.11Zm-.3,21H81.4c2,0,3.5-.61,3.7-2.8.2-1.8-1.4-3-3.7-3.2H23.8a8.27,8.27,0,0,0-2.7.29,2.87,2.87,0,0,0-1.5,4.6C20.5,66,21.8,66,23,66Zm.5-47.81H24a22.17,22.17,0,0,0-2.7.11,2.43,2.43,0,0,0-2.2,2.6,2.58,2.58,0,0,0,2.2,2.9,10.55,10.55,0,0,0,2.5.2H80.5a19,19,0,0,0,2.5-.11A2.73,2.73,0,0,0,85.3,21a2.46,2.46,0,0,0-2.2-2.61,12.29,12.29,0,0,0-2.7-.2Z" transform="translate(-17.2 -13.02)"/><path class="cls-2" d="M52,45H23.8a14.74,14.74,0,0,1-2.2-.11A2.67,2.67,0,0,1,19,42.12a2.7,2.7,0,0,1,2.3-2.8,12.29,12.29,0,0,1,2.7-.2H80.1c3.4,0,5.1,1.1,5,3.1s-1.6,2.8-5,2.8Z" transform="translate(-17.2 -13.02)"/><path class="cls-2" d="M51.7,66H23c-1.3,0-2.5,0-3.4-1.11a2.88,2.88,0,0,1,1.5-4.6A8.58,8.58,0,0,1,23.8,60H81.4c2.3.1,3.9,1.39,3.7,3.2-.2,2.2-1.7,2.8-3.7,2.8Z" transform="translate(-17.2 -13.02)"/><path class="cls-3" d="M52.2,18.21h28a12.29,12.29,0,0,1,2.7.2A2.58,2.58,0,0,1,85.1,21a2.72,2.72,0,0,1-2.3,2.89,10.48,10.48,0,0,1-2.5.11H23.6a10.55,10.55,0,0,1-2.5-.2,2.72,2.72,0,0,1-2.2-2.9,2.59,2.59,0,0,1,2.2-2.6,22.17,22.17,0,0,1,2.7-.11Z" transform="translate(-17.2 -13.02)"/></svg>