<?xml version="1.0" encoding="utf-8"?>
<!-- Generator: Adobe Illustrator 26.0.1, SVG Export Plug-In . SVG Version: 6.00 Build 0)  -->
<svg version="1.1" id="Layer_1" xmlns="http://www.w3.org/2000/svg" xmlns:xlink="http://www.w3.org/1999/xlink" x="0px" y="0px"
	 viewBox="0 0 40 40" style="enable-background:new 0 0 40 40;" xml:space="preserve">
<style type="text/css">
	.st0{fill:#FFFFFF;}
</style>
<g>
	<path class="st0" d="M19.6,4.4c5.1,0,5.6,0,7.6,0.1c1.8,0.1,2.9,0.4,3.5,0.7c0.9,0.4,1.5,0.8,2.2,1.5c0.7,0.7,1,1.3,1.4,2.2
		c0.3,0.7,0.6,1.6,0.7,3.6c0.1,2,0.1,2.6,0.1,7.7s0,5.7-0.1,7.7c-0.1,1.8-0.4,2.9-0.7,3.6c-0.4,0.9-0.8,1.5-1.4,2.2
		c-0.7,0.7-1.2,1.1-2.2,1.5c-0.7,0.3-1.6,0.6-3.5,0.7c-2,0.1-2.6,0.1-7.6,0.1S14,36,12,35.9c-1.8-0.1-2.9-0.4-3.5-0.7
		c-0.9-0.4-1.5-0.8-2.2-1.5s-1-1.6-1.2-2.5c-0.3-0.7-0.6-1.6-0.7-3.5c-0.1-2-0.1-2.6-0.1-7.7s0-5.7,0.1-7.7C4.5,10.4,4.7,9.4,5,8.7
		c0.3-0.8,0.7-1.5,1.3-2.1s1.3-1.1,2.2-1.4c0.7-0.3,1.6-0.6,3.4-0.7C14,4.4,14.6,4.4,19.6,4.4 M19.6,1c-5.1,0-5.7,0-7.7,0.1
		c-2,0.1-3.3,0.5-4.6,1S5,3.1,4,4.1S2.4,6.3,1.9,7.5C1.4,8.7,1.1,10.1,1,12.2c-0.2,2-0.2,2.7-0.2,7.8s0,5.8,0.1,7.8s0.4,3.4,0.9,4.6
		c0.5,1.3,1.1,2.3,2.2,3.4c1,1.1,2.1,1.7,3.3,2.2c1.1,0.5,2.6,0.8,4.6,0.9c2,0.1,2.7,0.1,7.7,0.1s5.7,0,7.7-0.1
		c2-0.1,3.3-0.4,4.6-0.9c1.2-0.5,2.3-1.2,3.3-2.2c1-1.1,1.7-2.1,2.2-3.4c0.5-1.2,0.8-2.6,0.9-4.6c0.1-2,0.1-2.7,0.1-7.8
		s0-5.8-0.1-7.8s-0.4-3.4-0.9-4.6s-1.1-2.3-2.2-3.4c-1-1.1-2.1-1.7-3.3-2.2c-1.1-0.5-2.6-0.8-4.6-0.9S24.7,1,19.6,1z"/>
	<path class="st0" d="M19.6,10.2c-5.3,0-9.6,4.4-9.6,9.8s4.3,9.8,9.6,9.8s9.6-4.4,9.6-9.8S24.9,10.2,19.6,10.2z M19.6,26.4
		c-3.4,0-6.3-2.8-6.3-6.4s2.8-6.4,6.3-6.4s6.3,2.8,6.3,6.4S23,26.4,19.6,26.4z"/>
	<ellipse class="st0" cx="29.6" cy="9.8" rx="2.3" ry="2.3"/>
</g>
</svg>
