<svg xmlns="http://www.w3.org/2000/svg" viewBox="0 0 40 40">
	<title>Instagram</title>
	<g fill="#FFF">
		<path d="M20 3.9c5.3 0 5.9 0 8 .1 1.9.1 3 .4 3.7.7.9.4 1.6.8 2.3 1.5.7.7 1.1 1.3 1.5 2.3.3.7.6 1.7.7 3.7.1 2.1.1 2.7.1 8s0 5.9-.1 8c-.1 1.9-.4 3-.7 3.7-.4.9-.8 1.6-1.5 2.3-.7.7-1.3 1.1-2.3 1.5-.7.3-1.7.6-3.7.7-2.1.1-2.7.1-8 .1s-5.9 0-8-.1c-1.9-.1-3-.4-3.7-.7-.9-.4-1.6-.8-2.3-1.5s-1-1.7-1.3-2.6c-.3-.7-.6-1.7-.7-3.6-.1-2.1-.1-2.7-.1-8s0-5.9.1-8c.1-1.9.4-3 .7-3.7.3-.8.7-1.5 1.4-2.2S7.5 5 8.4 4.7c.7-.3 1.7-.6 3.6-.7 2.1-.1 2.7-.1 8-.1m0-3.6c-5.3 0-6 0-8.1.1-2.1.1-3.5.5-4.8 1-1.3.5-2.4 1.1-3.5 2.2S1.9 5.8 1.4 7.1C.9 8.3.6 9.8.5 11.9.3 14 .3 14.7.3 20s0 6 .1 8.1c.1 2.1.4 3.5.9 4.8.5 1.3 1.2 2.4 2.3 3.5s2.2 1.8 3.5 2.3c1.2.5 2.7.8 4.8.9 2.1.1 2.8.1 8.1.1s6 0 8.1-.1c2.1-.1 3.5-.4 4.8-.9 1.3-.5 2.4-1.2 3.5-2.3s1.8-2.2 2.3-3.5c.5-1.2.8-2.7.9-4.8.1-2.1.1-2.8.1-8.1s0-6-.1-8.1c-.1-2.1-.4-3.5-.9-4.8-.5-1.3-1.2-2.4-2.3-3.5s-2.2-1.8-3.5-2.3C31.7.8 30.2.5 28.1.4 26 .3 25.3.3 20 .3z"/>
		<path d="M20 9.9C14.4 9.9 9.9 14.4 9.9 20S14.4 30.1 20 30.1 30.1 25.6 30.1 20 25.6 9.9 20 9.9zm0 16.7c-3.6 0-6.6-2.9-6.6-6.6s2.9-6.6 6.6-6.6 6.6 2.9 6.6 6.6-3 6.6-6.6 6.6z"/>
		<circle cx="30.5" cy="9.5" r="2.4"/>
	</g>
</svg>