<svg id="UI-MyAccount" xmlns="http://www.w3.org/2000/svg" viewBox="0 0 611.8 612.2"><defs><style>.cls-1{fill:#005699;}</style></defs><path class="cls-1" d="M306.3,2.89C137.3,2.89.1,140.29.1,309.09a305.11,305.11,0,0,0,83.3,210.1c58.7,61.7,137.6,95.9,222.7,95.9a306,306,0,0,0,305.8-306C612.1,140.29,474.7,2.89,306.3,2.89ZM30.4,309.09C30.4,157,154,33.39,306.1,33.39c151.9,0,275.5,123.6,275.5,275.7a273.9,273.9,0,0,1-63.9,176.3c-11.2-10.6-26.5-18.6-47.4-24.9-79.2-14.2-97.9-29.5-100.8-58.9l76.5-6.1V258a47,47,0,0,0-.2-5.3,140,140,0,0,0-279.8,0,47,47,0,0,0-.2,5.3v137.4l76.7,6.1c-2.8,29.3-21.8,44.8-102.6,59.3-19.6,6.1-34.8,14-46,24.7A277.07,277.07,0,0,1,30.4,309.09Zm286.3,88.5a43.31,43.31,0,0,1-15,2.8,30.27,30.27,0,0,1-14.4-3.7c-12.6-6.3-24.3-20-34.2-36.8a215.87,215.87,0,0,1-22.8-57l-13.8-34.4h7.3c82.3-10.6,106.4-42.3,117.7-53.6,13.8,27.9,41.7,53.6,41.7,53.6h12.4l-12.8,31.6a1.51,1.51,0,0,1-.2.8,196.82,196.82,0,0,1-21.8,54.6c-11.9,20-27,36.1-44.1,42.1Zm30.3-5.4c-.4,0-.6.2-1,.2l.2-.2Zm-80.8.2a1.2,1.2,0,0,1-.8-.2h.6l.2.2Zm-66.6-155.6c0-116.5,213-119.5,213,0C412.6,152.19,199.6,155.19,199.6,236.79Zm207.9,81.7a9.54,9.54,0,0,1-9.5,9.7,9.49,9.49,0,0,1-2-18.8,3.29,3.29,0,0,1,2-.4,9.43,9.43,0,0,1,9.5,9.5Zm-193.8-9.4a5.54,5.54,0,0,1,2.6.6,8.76,8.76,0,0,1,7.1,8.9,9.89,9.89,0,0,1-9.7,9.7,9.6,9.6,0,1,1,0-19.2Zm92.6,275.5a273.64,273.64,0,0,1-191.4-77.1c7.7-7.3,18.2-12.8,32.4-17.1,67.8-12.2,109.9-27.9,122.2-69.2,10.1,6.3,20.8,9.7,32.4,9.7,14.8,0,28.3-4.5,40.7-12,11.4,42.9,53.4,58.9,121,71,15.2,4.7,26.1,10.4,33.8,17.6A272.93,272.93,0,0,1,306.3,584.59Z" transform="translate(-0.1 -2.89)"/></svg>