<svg id="Layer_1" data-name="Layer 1" xmlns="http://www.w3.org/2000/svg" viewBox="0 0 39 39"><defs><style>.cls-1{fill:#fdfefe;}.cls-2{fill:#2a5b98;}.cls-3{fill:#fdfdfe;}</style></defs><g id="up0uQ1"><path class="cls-1" d="M49.76,48.91H10.82c0-12.49,0-25,0-37.48,0-1.24.28-1.52,1.51-1.52q18,.09,36,0c1.23,0,1.51.28,1.51,1.52C49.74,23.92,49.76,36.42,49.76,48.91ZM26.29,13.85a12.46,12.46,0,0,0-11.88,8,12.88,12.88,0,0,0,3.25,14A12.51,12.51,0,0,0,31.84,37.7c1.25-.64,2-.62,2.92.43,2.2,2.43,4.6,4.68,6.82,7.11a2.26,2.26,0,0,0,3.62.13c1.16-1.08.66-2.17-.35-3.18-2.27-2.25-4.41-4.65-6.76-6.82-1.24-1.15-1.31-2-.56-3.53A12.53,12.53,0,0,0,26.29,13.85Z" transform="translate(-10.79 -9.91)"/><path class="cls-2" d="M26.29,13.85a12.53,12.53,0,0,1,11.24,18c-.75,1.53-.68,2.38.56,3.53,2.35,2.17,4.49,4.57,6.76,6.82,1,1,1.51,2.1.35,3.18a2.26,2.26,0,0,1-3.62-.13c-2.22-2.43-4.62-4.68-6.82-7.11-1-1.05-1.67-1.07-2.92-.43a12.51,12.51,0,0,1-14.18-1.87,12.88,12.88,0,0,1-3.25-14A12.46,12.46,0,0,1,26.29,13.85ZM26.2,35.62A9.16,9.16,0,1,0,17,26.36,9.2,9.2,0,0,0,26.2,35.62Z" transform="translate(-10.79 -9.91)"/><path class="cls-3" d="M26.2,35.62a9.16,9.16,0,1,1,9.15-9.06A9.19,9.19,0,0,1,26.2,35.62Z" transform="translate(-10.79 -9.91)"/></g></svg>