<?xml version="1.0" encoding="utf-8"?>
<!-- Generator: Adobe Illustrator 26.0.1, SVG Export Plug-In . SVG Version: 6.00 Build 0)  -->
<svg version="1.1" id="Layer_1" xmlns="http://www.w3.org/2000/svg" xmlns:xlink="http://www.w3.org/1999/xlink" x="0px" y="0px"
	 viewBox="0 0 39 39" style="enable-background:new 0 0 39 39;" xml:space="preserve">
<style type="text/css">
	.st0{fill:#2A5B98;}
</style>
<path class="st0" d="M16.1,0.8c6.9,0,12.5,5.6,12.5,12.6c0,1.9-0.4,3.7-1.3,5.4c-0.8,1.5-0.7,2.4,0.6,3.5c2.3,2.2,4.5,4.6,6.8,6.8
	c1,1,1.5,2.1,0.3,3.2c-0.8,1-2.2,1.1-3.2,0.3c-0.2-0.1-0.3-0.3-0.4-0.5c-2.2-2.4-4.6-4.7-6.8-7.1c-1-1-1.7-1.1-2.9-0.4
	c-4.7,2.4-10.3,1.7-14.2-1.9c-3.8-3.6-5.1-9.1-3.2-14C6.1,3.9,10.8,0.7,16.1,0.8z M16,22.6c5.1,0,9.1-4.1,9.1-9.2
	c0-5.1-4.1-9.1-9.2-9.1c-5,0-9.1,4.1-9.1,9.1C6.8,18.4,10.8,22.6,16,22.6C15.9,22.6,16,22.6,16,22.6z"/>
</svg>
